<?xml version="1.0" encoding="UTF-8"?>
<svg width="72px" height="24px" viewBox="0 0 72 24" version="1.1" xmlns="http://www.w3.org/2000/svg" xmlns:xlink="http://www.w3.org/1999/xlink">
    <title>Group 2</title>
    <g id="Page-1" stroke="none" stroke-width="1" fill="none" fill-rule="evenodd">
        <g id="Group-2">
            <g id="TMS" transform="translate(29.1758, 5.4395)" fill="#223A9D" fill-rule="nonzero">
                <path d="M10.6835938,2.63671875 L7.51953125,2.63671875 L7.51953125,13.0371094 C7.51953125,13.6360677 7.38606771,14.0804036 7.11914062,14.3701172 C6.85221354,14.6598307 6.50716146,14.8046875 6.08398438,14.8046875 C5.65429688,14.8046875 5.30436198,14.6582031 5.03417969,14.3652344 C4.7639974,14.0722656 4.62890625,13.6295573 4.62890625,13.0371094 L4.62890625,2.63671875 L1.46484375,2.63671875 C0.970052083,2.63671875 0.602213542,2.52766927 0.361328125,2.30957031 C0.120442708,2.09147135 0,1.80338542 0,1.4453125 C0,1.07421875 0.125325521,0.78125 0.375976562,0.56640625 C0.626627604,0.3515625 0.989583333,0.244140625 1.46484375,0.244140625 L10.6835938,0.244140625 C11.1848958,0.244140625 11.5576172,0.354817708 11.8017578,0.576171875 C12.0458984,0.797526042 12.1679688,1.08723958 12.1679688,1.4453125 C12.1679688,1.80338542 12.0442708,2.09147135 11.796875,2.30957031 C11.5494792,2.52766927 11.1783854,2.63671875 10.6835938,2.63671875 Z" id="Path"></path>
                <path d="M18.7207031,12.4023438 L16.4257812,3.28125 L16.4257812,13.1640625 C16.4257812,13.7109375 16.3037109,14.1210938 16.0595703,14.3945312 C15.8154297,14.6679688 15.4915365,14.8046875 15.0878906,14.8046875 C14.6972656,14.8046875 14.3782552,14.6695964 14.1308594,14.3994141 C13.8834635,14.1292318 13.7597656,13.7174479 13.7597656,13.1640625 L13.7597656,1.8359375 C13.7597656,1.2109375 13.922526,0.789388021 14.2480469,0.571289062 C14.5735677,0.353190104 15.0130208,0.244140625 15.5664062,0.244140625 L16.4648438,0.244140625 C17.0052083,0.244140625 17.3974609,0.29296875 17.6416016,0.390625 C17.8857422,0.48828125 18.0664062,0.6640625 18.1835938,0.91796875 C18.3007812,1.171875 18.4342448,1.58528646 18.5839844,2.15820312 L20.6640625,10 L22.7441406,2.15820312 C22.8938802,1.58528646 23.0273438,1.171875 23.1445312,0.91796875 C23.2617188,0.6640625 23.4423828,0.48828125 23.6865234,0.390625 C23.9306641,0.29296875 24.3229167,0.244140625 24.8632812,0.244140625 L25.7617188,0.244140625 C26.3151042,0.244140625 26.7545573,0.353190104 27.0800781,0.571289062 C27.405599,0.789388021 27.5683594,1.2109375 27.5683594,1.8359375 L27.5683594,13.1640625 C27.5683594,13.7109375 27.4462891,14.1210938 27.2021484,14.3945312 C26.9580078,14.6679688 26.6308594,14.8046875 26.2207031,14.8046875 C25.8365885,14.8046875 25.5208333,14.6679688 25.2734375,14.3945312 C25.0260417,14.1210938 24.9023438,13.7109375 24.9023438,13.1640625 L24.9023438,3.28125 L22.6074219,12.4023438 C22.4576823,12.9947917 22.335612,13.429362 22.2412109,13.7060547 C22.1468099,13.9827474 21.9726562,14.235026 21.71875,14.4628906 C21.4648438,14.6907552 21.1132812,14.8046875 20.6640625,14.8046875 C20.3255208,14.8046875 20.0390625,14.7314453 19.8046875,14.5849609 C19.5703125,14.4384766 19.3880208,14.2513021 19.2578125,14.0234375 C19.1276042,13.7955729 19.0250651,13.5432943 18.9501953,13.2666016 C18.8753255,12.9899089 18.7988281,12.7018229 18.7207031,12.4023438 Z" id="Path"></path>
                <path d="M41.4257812,10.2636719 C41.4257812,11.1295573 41.2027995,11.9075521 40.7568359,12.5976562 C40.3108724,13.2877604 39.6582031,13.828125 38.7988281,14.21875 C37.9394531,14.609375 36.9205729,14.8046875 35.7421875,14.8046875 C34.3294271,14.8046875 33.1640625,14.5377604 32.2460938,14.0039062 C31.5950521,13.6197917 31.0660807,13.1070964 30.6591797,12.4658203 C30.2522786,11.8245443 30.0488281,11.2011719 30.0488281,10.5957031 C30.0488281,10.2441406 30.1708984,9.94303385 30.4150391,9.69238281 C30.6591797,9.44173177 30.9700521,9.31640625 31.3476562,9.31640625 C31.6536458,9.31640625 31.9124349,9.4140625 32.1240234,9.609375 C32.335612,9.8046875 32.516276,10.094401 32.6660156,10.4785156 C32.8483073,10.9342448 33.0452474,11.3151042 33.2568359,11.6210938 C33.4684245,11.9270833 33.766276,12.179362 34.1503906,12.3779297 C34.5345052,12.5764974 35.0390625,12.6757812 35.6640625,12.6757812 C36.5234375,12.6757812 37.2216797,12.4755859 37.7587891,12.0751953 C38.2958984,11.6748047 38.5644531,11.1751302 38.5644531,10.5761719 C38.5644531,10.1009115 38.4195964,9.71516927 38.1298828,9.41894531 C37.8401693,9.12272135 37.4658203,8.89648438 37.0068359,8.74023438 C36.5478516,8.58398438 35.9342448,8.41796875 35.1660156,8.2421875 C34.1373698,8.00130208 33.2763672,7.71972656 32.5830078,7.39746094 C31.8896484,7.07519531 31.3395182,6.63574219 30.9326172,6.07910156 C30.5257161,5.52246094 30.3222656,4.83072917 30.3222656,4.00390625 C30.3222656,3.21614583 30.5371094,2.51627604 30.9667969,1.90429688 C31.3964844,1.29231771 32.0182292,0.821940104 32.8320312,0.493164062 C33.6458333,0.164388021 34.6028646,0 35.703125,0 C36.5820312,0 37.3421224,0.109049479 37.9833984,0.327148438 C38.6246745,0.545247396 39.156901,0.834960938 39.5800781,1.19628906 C40.0032552,1.55761719 40.3125,1.93684896 40.5078125,2.33398438 C40.703125,2.73111979 40.8007812,3.11848958 40.8007812,3.49609375 C40.8007812,3.84114583 40.6787109,4.15201823 40.4345703,4.42871094 C40.1904297,4.70540365 39.8860677,4.84375 39.5214844,4.84375 C39.1894531,4.84375 38.9371745,4.76074219 38.7646484,4.59472656 C38.5921224,4.42871094 38.4049479,4.15690104 38.203125,3.77929688 C37.9427083,3.23893229 37.6302083,2.81738281 37.265625,2.51464844 C36.9010417,2.21191406 36.3151042,2.06054688 35.5078125,2.06054688 C34.7591146,2.06054688 34.1552734,2.2249349 33.6962891,2.55371094 C33.2373047,2.88248698 33.0078125,3.27799479 33.0078125,3.74023437 C33.0078125,4.02669271 33.0859375,4.27408854 33.2421875,4.48242188 C33.3984375,4.69075521 33.6132812,4.86979167 33.8867188,5.01953125 C34.1601562,5.16927083 34.436849,5.28645833 34.7167969,5.37109375 C34.9967448,5.45572917 35.4589844,5.57942708 36.1035156,5.7421875 C36.9108073,5.93098958 37.6416016,6.13932292 38.2958984,6.3671875 C38.9501953,6.59505208 39.5068359,6.87174479 39.9658203,7.19726562 C40.4248047,7.52278646 40.7828776,7.93457031 41.0400391,8.43261719 C41.2972005,8.93066406 41.4257812,9.54101562 41.4257812,10.2636719 Z" id="Path"></path>
            </g>
            <rect id="Rectangle" x="0" y="0" width="72" height="24"></rect>
            <g id="Group" transform="translate(2, 2)">
                <circle id="Oval" fill="#223A9D" cx="10" cy="10" r="10"></circle>
                <g id="opened-book-3163" transform="translate(4, 4)" fill="#D8D8D8" fill-rule="nonzero">
                    <path d="M11.8666667,3.53337712 L11.1036,3.53337712 L11.1036,1.55852712 C11.1036,1.52080355 11.0889333,1.48461119 11.0629333,1.45844133 C11.0368,1.43227147 11.0026667,1.41751613 10.9657333,1.41946494 C10.3886667,1.44020595 9.82733333,1.52414438 9.29186667,1.66292816 L9.29186667,0.139229843 C9.29186667,0.0913445677 9.26826667,0.0466609244 9.22933333,0.021326273 C9.19026667,-0.0042867811 9.14186667,-0.00693160734 9.10026667,0.0139485998 C7.91493333,0.613767351 6.8612,1.77456767 5.9656,3.46266282 C4.6312,2.17463244 3.066,1.48614241 1.30946667,1.41932574 C1.27226667,1.41668092 1.23813333,1.43199307 1.212,1.45830213 C1.186,1.48447199 1.1712,1.52066435 1.1712,1.55852712 L1.1712,2.57887325 C0.9856,2.59251498 0.797466667,2.61019356 0.608533333,2.6345538 C0.541333333,2.64332349 0.490933333,2.70318008 0.4916,2.77389438 L0.497866667,3.53337712 L0,3.53337712 L0,11 L6,11 L11.8666667,11 C11.9404,11 12,10.937777 12,10.8607986 L12,3.6725785 C12,3.59573934 11.9404,3.53337712 11.8666667,3.53337712 Z M10.8369333,1.70371417 L10.8369333,8.60058579 C9.22306667,8.68396742 7.764,9.24049454 6.4876,10.2561078 C7.28946667,8.89805915 8.20533333,7.95176816 9.2168,7.44006388 C9.2628,7.41681725 9.29186667,7.36809677 9.29186667,7.31492184 L9.29186667,1.9487086 C9.78573333,1.81577128 10.3037333,1.73211125 10.8369333,1.70371417 Z M9.0252,0.367241705 L9.0252,7.22861698 C7.94333333,7.80017785 6.9724,8.84168259 6.13333333,10.3293277 L6.13333333,3.72032457 C6.9672,2.1099038 7.9392,0.983207817 9.0252,0.367241705 Z M5.86666667,3.74468482 L5.86666667,10.5282465 C5.85306667,10.5201728 5.8392,10.512656 5.82546667,10.5045823 C4.55493333,9.33250666 3.08133333,8.6923195 1.43786667,8.6010034 L1.43786667,2.7051289 C1.43786667,2.70331928 1.43866667,2.70178807 1.43853333,2.69983925 C1.43853333,2.69886484 1.43786667,2.69802963 1.43786667,2.69705522 L1.43786667,1.70413177 C3.10826667,1.80059833 4.59733333,2.48658273 5.86666667,3.74468482 Z M1.1712,2.85755441 L1.1712,8.73407992 C1.1712,8.80897026 1.228,8.87035807 1.2996,8.8731421 C2.52946667,8.91991376 3.66226667,9.28434298 4.68386667,9.95640725 C3.50733333,9.51305085 2.21226667,9.36953422 0.814133333,9.53003342 L0.7592,2.8963916 C0.8976,2.88010504 1.03506667,2.86785532 1.1712,2.85755441 Z M0.266666667,3.81177988 L0.500133333,3.81177988 L0.548933333,9.68760938 C0.5492,9.72728177 0.565733333,9.76500535 0.5944,9.79103601 C0.622933333,9.81720586 0.6612,9.82903798 0.698666667,9.82444434 C2.54733333,9.58557477 4.2096,9.88861617 5.65,10.721458 L0.266666667,10.721458 L0.266666667,3.81177988 Z M11.7333333,10.7215972 L6.35573333,10.7215972 C7.68906667,9.55703848 9.24133333,8.93550432 10.9748,8.8732813 C11.0466667,8.87063647 11.1036,8.80924866 11.1036,8.73421912 L11.1036,3.81177988 L11.7333333,3.81177988 L11.7333333,10.7215972 Z" id="Shape"></path>
                </g>
            </g>
        </g>
    </g>
</svg>