<?xml version="1.0" encoding="UTF-8"?>
<svg width="72px" height="24px" viewBox="0 0 72 24" version="1.1" xmlns="http://www.w3.org/2000/svg" xmlns:xlink="http://www.w3.org/1999/xlink">
    <title>Group</title>
    <g id="Page-1" stroke="none" stroke-width="1" fill="none" fill-rule="evenodd">
        <g id="Group">
            <g id="TMS" transform="translate(29.1758, 5.4395)" fill="#223A9D" fill-rule="nonzero">
                <path d="M10.6835938,2.63671875 L7.51953125,2.63671875 L7.51953125,13.0371094 C7.51953125,13.6360677 7.38606771,14.0804036 7.11914062,14.3701172 C6.85221354,14.6598307 6.50716146,14.8046875 6.08398438,14.8046875 C5.65429688,14.8046875 5.30436198,14.6582031 5.03417969,14.3652344 C4.7639974,14.0722656 4.62890625,13.6295573 4.62890625,13.0371094 L4.62890625,2.63671875 L1.46484375,2.63671875 C0.970052083,2.63671875 0.602213542,2.52766927 0.361328125,2.30957031 C0.120442708,2.09147135 0,1.80338542 0,1.4453125 C0,1.07421875 0.125325521,0.78125 0.375976562,0.56640625 C0.626627604,0.3515625 0.989583333,0.244140625 1.46484375,0.244140625 L10.6835938,0.244140625 C11.1848958,0.244140625 11.5576172,0.354817708 11.8017578,0.576171875 C12.0458984,0.797526042 12.1679688,1.08723958 12.1679688,1.4453125 C12.1679688,1.80338542 12.0442708,2.09147135 11.796875,2.30957031 C11.5494792,2.52766927 11.1783854,2.63671875 10.6835938,2.63671875 Z" id="Path"></path>
                <path d="M18.7207031,12.4023438 L16.4257812,3.28125 L16.4257812,13.1640625 C16.4257812,13.7109375 16.3037109,14.1210938 16.0595703,14.3945312 C15.8154297,14.6679688 15.4915365,14.8046875 15.0878906,14.8046875 C14.6972656,14.8046875 14.3782552,14.6695964 14.1308594,14.3994141 C13.8834635,14.1292318 13.7597656,13.7174479 13.7597656,13.1640625 L13.7597656,1.8359375 C13.7597656,1.2109375 13.922526,0.789388021 14.2480469,0.571289062 C14.5735677,0.353190104 15.0130208,0.244140625 15.5664062,0.244140625 L16.4648438,0.244140625 C17.0052083,0.244140625 17.3974609,0.29296875 17.6416016,0.390625 C17.8857422,0.48828125 18.0664062,0.6640625 18.1835938,0.91796875 C18.3007812,1.171875 18.4342448,1.58528646 18.5839844,2.15820312 L20.6640625,10 L22.7441406,2.15820312 C22.8938802,1.58528646 23.0273438,1.171875 23.1445312,0.91796875 C23.2617188,0.6640625 23.4423828,0.48828125 23.6865234,0.390625 C23.9306641,0.29296875 24.3229167,0.244140625 24.8632812,0.244140625 L25.7617188,0.244140625 C26.3151042,0.244140625 26.7545573,0.353190104 27.0800781,0.571289062 C27.405599,0.789388021 27.5683594,1.2109375 27.5683594,1.8359375 L27.5683594,13.1640625 C27.5683594,13.7109375 27.4462891,14.1210938 27.2021484,14.3945312 C26.9580078,14.6679688 26.6308594,14.8046875 26.2207031,14.8046875 C25.8365885,14.8046875 25.5208333,14.6679688 25.2734375,14.3945312 C25.0260417,14.1210938 24.9023438,13.7109375 24.9023438,13.1640625 L24.9023438,3.28125 L22.6074219,12.4023438 C22.4576823,12.9947917 22.335612,13.429362 22.2412109,13.7060547 C22.1468099,13.9827474 21.9726562,14.235026 21.71875,14.4628906 C21.4648438,14.6907552 21.1132812,14.8046875 20.6640625,14.8046875 C20.3255208,14.8046875 20.0390625,14.7314453 19.8046875,14.5849609 C19.5703125,14.4384766 19.3880208,14.2513021 19.2578125,14.0234375 C19.1276042,13.7955729 19.0250651,13.5432943 18.9501953,13.2666016 C18.8753255,12.9899089 18.7988281,12.7018229 18.7207031,12.4023438 Z" id="Path"></path>
                <path d="M41.4257812,10.2636719 C41.4257812,11.1295573 41.2027995,11.9075521 40.7568359,12.5976562 C40.3108724,13.2877604 39.6582031,13.828125 38.7988281,14.21875 C37.9394531,14.609375 36.9205729,14.8046875 35.7421875,14.8046875 C34.3294271,14.8046875 33.1640625,14.5377604 32.2460938,14.0039062 C31.5950521,13.6197917 31.0660807,13.1070964 30.6591797,12.4658203 C30.2522786,11.8245443 30.0488281,11.2011719 30.0488281,10.5957031 C30.0488281,10.2441406 30.1708984,9.94303385 30.4150391,9.69238281 C30.6591797,9.44173177 30.9700521,9.31640625 31.3476562,9.31640625 C31.6536458,9.31640625 31.9124349,9.4140625 32.1240234,9.609375 C32.335612,9.8046875 32.516276,10.094401 32.6660156,10.4785156 C32.8483073,10.9342448 33.0452474,11.3151042 33.2568359,11.6210938 C33.4684245,11.9270833 33.766276,12.179362 34.1503906,12.3779297 C34.5345052,12.5764974 35.0390625,12.6757812 35.6640625,12.6757812 C36.5234375,12.6757812 37.2216797,12.4755859 37.7587891,12.0751953 C38.2958984,11.6748047 38.5644531,11.1751302 38.5644531,10.5761719 C38.5644531,10.1009115 38.4195964,9.71516927 38.1298828,9.41894531 C37.8401693,9.12272135 37.4658203,8.89648438 37.0068359,8.74023438 C36.5478516,8.58398438 35.9342448,8.41796875 35.1660156,8.2421875 C34.1373698,8.00130208 33.2763672,7.71972656 32.5830078,7.39746094 C31.8896484,7.07519531 31.3395182,6.63574219 30.9326172,6.07910156 C30.5257161,5.52246094 30.3222656,4.83072917 30.3222656,4.00390625 C30.3222656,3.21614583 30.5371094,2.51627604 30.9667969,1.90429688 C31.3964844,1.29231771 32.0182292,0.821940104 32.8320312,0.493164062 C33.6458333,0.164388021 34.6028646,0 35.703125,0 C36.5820312,0 37.3421224,0.109049479 37.9833984,0.327148438 C38.6246745,0.545247396 39.156901,0.834960938 39.5800781,1.19628906 C40.0032552,1.55761719 40.3125,1.93684896 40.5078125,2.33398438 C40.703125,2.73111979 40.8007812,3.11848958 40.8007812,3.49609375 C40.8007812,3.84114583 40.6787109,4.15201823 40.4345703,4.42871094 C40.1904297,4.70540365 39.8860677,4.84375 39.5214844,4.84375 C39.1894531,4.84375 38.9371745,4.76074219 38.7646484,4.59472656 C38.5921224,4.42871094 38.4049479,4.15690104 38.203125,3.77929688 C37.9427083,3.23893229 37.6302083,2.81738281 37.265625,2.51464844 C36.9010417,2.21191406 36.3151042,2.06054688 35.5078125,2.06054688 C34.7591146,2.06054688 34.1552734,2.2249349 33.6962891,2.55371094 C33.2373047,2.88248698 33.0078125,3.27799479 33.0078125,3.74023437 C33.0078125,4.02669271 33.0859375,4.27408854 33.2421875,4.48242188 C33.3984375,4.69075521 33.6132812,4.86979167 33.8867188,5.01953125 C34.1601562,5.16927083 34.436849,5.28645833 34.7167969,5.37109375 C34.9967448,5.45572917 35.4589844,5.57942708 36.1035156,5.7421875 C36.9108073,5.93098958 37.6416016,6.13932292 38.2958984,6.3671875 C38.9501953,6.59505208 39.5068359,6.87174479 39.9658203,7.19726562 C40.4248047,7.52278646 40.7828776,7.93457031 41.0400391,8.43261719 C41.2972005,8.93066406 41.4257812,9.54101562 41.4257812,10.2636719 Z" id="Path"></path>
            </g>
            <rect id="Rectangle" x="0" y="0" width="72" height="24"></rect>
            <g id="opened-book-3163" transform="translate(3, 3)" fill="#223A9D" fill-rule="nonzero">
                <path d="M18.7888889,5.46067373 L17.5807,5.46067373 L17.5807,2.40863283 C17.5807,2.35033276 17.5574778,2.29439911 17.5163111,2.25395479 C17.4749333,2.21351046 17.4208889,2.19070674 17.3624111,2.19371855 C16.4487222,2.22577283 15.5599444,2.35549587 14.7121222,2.56997988 L14.7121222,0.215173393 C14.7121222,0.141168877 14.6747556,0.0721123377 14.6131111,0.0329587856 C14.5512556,-0.00662502533 14.4746222,-0.0107124841 14.4087556,0.021556927 C12.5319778,0.948549543 10.8635667,2.74251367 9.44553333,5.35138799 C7.33273333,3.36079559 4.8545,2.29676554 2.07332222,2.19350342 C2.01442222,2.18941596 1.96037778,2.2130802 1.919,2.25373966 C1.87783333,2.29418398 1.8544,2.35011763 1.8544,2.40863283 L1.8544,3.98553138 C1.56053333,4.00661407 1.26265556,4.0339355 0.963511111,4.07158315 C0.857111111,4.0851363 0.777311111,4.17764194 0.778366667,4.28692768 L0.788288889,5.46067373 L0,5.46067373 L0,17 L9.5,17 L18.7888889,17 C18.9056333,17 19,16.9038372 19,16.7848706 L19,5.67580314 C19,5.5570517 18.9056333,5.46067373 18.7888889,5.46067373 Z M17.1584778,2.6330128 L17.1584778,13.2918144 C14.6031889,13.4206769 12.293,14.2807643 10.2720333,15.8503484 C11.5416556,13.751546 12.9917778,12.2890962 14.5932667,11.4982805 C14.6661,11.4623539 14.7121222,11.3870586 14.7121222,11.3048792 L14.7121222,3.01164056 C15.4940778,2.80619197 16.3142444,2.6768992 17.1584778,2.6330128 Z M14.2899,0.567555362 L14.2899,11.171499 C12.5769444,12.0548203 11.0396333,13.6644185 9.71111111,15.9635065 L9.71111111,5.74959252 C11.0314,3.26076041 12.5704,1.51950299 14.2899,0.567555362 Z M9.28888889,5.78724017 L9.28888889,16.2709264 C9.26735556,16.2584489 9.2454,16.2468319 9.22365556,16.2343544 C7.21197778,14.4229648 4.87877778,13.4335847 2.27662222,13.2924598 L2.27662222,4.18065376 C2.27662222,4.17785707 2.27788889,4.17549065 2.27767778,4.17247884 C2.27767778,4.17097293 2.27662222,4.16968216 2.27662222,4.16817625 L2.27662222,2.63365819 C4.92142222,2.78274287 7.27911111,3.84290059 9.28888889,5.78724017 Z M1.8544,4.41622046 L1.8544,13.4981235 C1.8544,13.6138631 1.94433333,13.7087352 2.0577,13.7130378 C4.00498889,13.7853213 5.79858889,14.3485301 7.41612222,15.3871748 C5.55327778,14.7019877 3.50275556,14.4801893 1.28904444,14.7282335 L1.20206667,4.47624156 C1.4212,4.45107142 1.63885556,4.43214003 1.8544,4.41622046 Z M0.422222222,5.89093254 L0.791877778,5.89093254 L0.869144444,14.9717599 C0.869566667,15.0330718 0.895744444,15.0913719 0.941133333,15.1316011 C0.986311111,15.1720454 1.0469,15.1903314 1.10622222,15.1832322 C4.03327778,14.8140701 6.6652,15.2824068 8.94583333,16.5695261 L0.422222222,16.5695261 L0.422222222,5.89093254 Z M18.5777778,16.5697412 L10.0632444,16.5697412 C12.1743556,14.7699686 14.6321111,13.8094158 17.3767667,13.7132529 C17.4905556,13.7091655 17.5807,13.6142934 17.5807,13.4983386 L17.5807,5.89093254 L18.5777778,5.89093254 L18.5777778,16.5697412 Z" id="Shape"></path>
            </g>
        </g>
    </g>
</svg>